<?xml version="1.0" encoding="UTF-8"?>
<svg viewBox="148 44 540 428" xmlns="http://www.w3.org/2000/svg">
  <title>IDN Global Advisory</title>
  <g id="logo" fill-rule="evenodd">
    <path id="gold-elements" d="M 420.00 210.50 L 355.50 210.00 L 356.00 208.50 L 360.00 208.50 L 364.00 206.50 L 365.50 204.00 L 365.50 200.00 L 366.50 199.00 L 366.50 64.00 L 365.50 63.00 L 365.50 59.00 L 364.50 57.00 L 361.00 54.50 L 356.00 54.50 L 356.00 52.50 L 424.00 52.50 L 425.00 53.50 L 430.00 53.50 L 431.00 54.50 L 438.00 55.50 L 439.00 56.50 L 444.00 57.50 L 460.00 66.50 L 471.50 78.00 L 480.50 94.00 L 480.50 96.00 L 482.50 100.00 L 482.50 103.00 L 483.50 104.00 L 483.50 110.00 L 484.50 111.00 L 484.50 134.00 L 483.50 135.00 L 483.50 141.00 L 482.50 142.00 L 481.50 150.00 L 478.00 158.50 L 477.50 157.00 L 468.50 147.00 L 469.50 136.00 L 470.50 135.00 L 470.50 114.00 L 469.50 113.00 L 468.50 102.00 L 467.50 101.00 L 466.50 96.00 L 461.50 86.00 L 459.50 84.00 L 458.50 81.00 L 454.50 77.00 L 454.50 76.00 L 444.00 66.50 L 441.00 65.50 L 439.00 63.50 L 431.00 59.50 L 425.00 58.50 L 424.00 57.50 L 421.00 57.50 L 420.00 56.50 L 416.00 56.50 L 415.00 55.50 L 403.00 55.50 L 402.00 54.50 L 385.00 54.50 L 380.50 58.00 L 379.50 60.00 L 379.50 201.00 L 380.50 202.00 L 380.50 204.00 L 383.00 206.50 L 385.00 206.50 L 386.00 207.50 L 410.00 207.50 L 411.00 206.50 L 416.00 206.50 L 417.00 205.50 L 424.00 204.50 L 427.00 202.50 L 429.00 202.50 L 433.00 200.50 L 435.00 198.50 L 438.00 197.50 L 442.00 193.50 L 443.00 193.50 L 449.50 187.00 L 449.50 186.00 L 456.50 178.00 L 460.00 170.50 L 461.00 170.50 L 468.50 179.00 L 461.50 187.00 L 461.50 188.00 L 456.00 193.50 L 455.00 193.50 L 451.00 197.50 L 450.00 197.50 L 445.00 201.50 L 437.00 205.50 L 435.00 205.50 L 432.00 207.50 L 429.00 207.50 L 428.00 208.50 L 426.00 208.50 L 425.00 209.50 L 421.00 209.50 L 420.00 210.50 Z M 358.00 190.50 L 324.50 190.00 L 325.00 188.50 L 329.00 188.50 L 330.00 187.50 L 332.00 187.50 L 334.50 185.00 L 334.50 183.00 L 335.50 182.00 L 335.50 93.00 L 334.50 92.00 L 334.50 90.00 L 331.00 86.50 L 326.00 86.50 L 324.50 85.00 L 325.00 84.50 L 328.00 84.50 L 329.00 83.50 L 358.50 84.00 L 358.00 86.50 L 353.00 86.50 L 349.50 90.00 L 349.50 92.00 L 348.50 93.00 L 348.50 182.00 L 349.50 183.00 L 349.50 185.00 L 352.00 187.50 L 358.00 188.50 L 358.00 190.50 Z M 502.00 210.50 L 501.00 210.50 L 497.50 207.00 L 497.50 206.00 L 485.50 193.00 L 485.50 192.00 L 480.50 187.00 L 480.50 186.00 L 472.50 178.00 L 472.50 177.00 L 459.50 163.00 L 459.50 162.00 L 453.50 156.00 L 453.50 155.00 L 440.50 141.00 L 440.50 140.00 L 435.50 135.00 L 435.50 134.00 L 429.50 128.00 L 429.50 127.00 L 422.50 120.00 L 422.50 119.00 L 417.50 114.00 L 417.50 113.00 L 407.00 101.50 L 406.50 170.00 L 407.50 171.00 L 407.50 176.00 L 408.50 178.00 L 412.00 181.50 L 414.00 182.50 L 418.00 182.50 L 418.50 184.00 L 391.50 184.00 L 392.00 182.50 L 396.00 182.50 L 399.50 180.00 L 402.50 173.00 L 402.50 97.00 L 401.50 95.00 L 394.00 87.50 L 390.00 86.50 L 388.50 85.00 L 389.00 84.50 L 391.00 83.50 L 409.00 83.50 L 419.50 95.00 L 419.50 96.00 L 423.50 100.00 L 423.50 101.00 L 429.50 107.00 L 429.50 108.00 L 435.50 114.00 L 435.50 115.00 L 441.50 121.00 L 441.50 122.00 L 448.50 129.00 L 448.50 130.00 L 459.50 142.00 L 459.50 143.00 L 464.50 148.00 L 464.50 149.00 L 483.50 170.00 L 483.50 171.00 L 498.00 186.50 L 498.50 127.00 L 497.50 126.00 L 497.50 123.00 L 495.50 119.00 L 492.00 116.50 L 489.00 116.50 L 488.50 115.00 L 514.50 115.00 L 513.00 116.50 L 509.00 116.50 L 505.00 118.50 L 502.50 124.00 L 502.00 210.50 Z M 361.00 352.50 L 361.00 275.50 L 361.00 352.50 Z M 171.00 356.50 L 171.00 277.50 L 171.00 356.50 Z M 583.00 347.50 L 583.00 277.50 L 583.00 347.50 Z M 587.00 349.50 L 586.50 282.00 L 588.00 281.50 L 587.00 349.50 Z M 660.00 293.50 L 660.00 282.50 L 660.00 293.50 Z M 664.00 367.50 L 664.00 285.50 L 664.00 367.50 Z M 199.00 367.50 L 156.50 367.00 L 199.00 366.50 L 199.00 367.50 Z M 392.00 367.50 L 333.50 367.00 L 392.00 366.50 L 392.00 367.50 Z M 602.00 367.50 L 567.50 367.00 L 602.00 366.50 L 602.00 367.50 Z M 417.00 419.50 L 416.00 419.50 L 405.50 409.00 L 405.50 407.00 L 416.00 396.50 L 417.00 396.50 L 428.50 408.00 L 417.00 419.50 Z M 390.00 408.50 L 154.00 408.50 L 153.50 407.00 L 390.00 406.50 L 390.00 408.50 Z M 681.00 408.50 L 444.00 408.50 L 443.50 407.00 L 680.00 406.50 L 681.50 408.00 L 681.00 408.50 Z M 165.00 464.50 L 161.00 464.50 L 157.00 462.50 L 154.50 460.00 L 154.50 458.00 L 153.50 457.00 L 153.50 453.00 L 155.50 449.00 L 161.00 445.50 L 165.00 445.50 L 166.00 446.50 L 168.00 446.50 L 169.50 448.00 L 168.00 450.50 L 166.00 448.50 L 161.00 448.50 L 158.50 450.00 L 156.50 454.00 L 157.50 459.00 L 161.00 461.50 L 166.00 461.50 L 167.50 460.00 L 167.50 457.00 L 164.00 456.50 L 164.00 454.50 L 170.50 455.00 L 170.50 461.00 L 168.00 463.50 L 166.00 463.50 L 165.00 464.50 Z M 238.00 464.50 L 234.00 464.50 L 232.00 463.50 L 227.50 459.00 L 227.50 451.00 L 234.00 445.50 L 238.00 445.50 L 239.00 446.50 L 241.00 446.50 L 245.50 452.00 L 245.50 458.00 L 244.50 460.00 L 241.00 463.50 L 239.00 463.50 L 238.00 464.50 Z M 277.00 464.50 L 268.50 464.00 L 268.50 447.00 L 270.00 445.50 L 271.00 446.50 L 277.00 445.50 L 278.00 446.50 L 280.00 446.50 L 282.50 449.00 L 282.50 452.00 L 280.50 454.00 L 283.50 458.00 L 283.50 461.00 L 281.00 463.50 L 278.00 463.50 L 277.00 464.50 Z M 322.00 464.50 L 319.50 463.00 L 318.00 459.50 L 310.00 459.50 L 308.50 463.00 L 307.00 464.50 L 305.50 464.00 L 305.50 461.00 L 308.50 456.00 L 308.50 454.00 L 311.50 449.00 L 311.50 447.00 L 313.00 445.50 L 314.00 445.50 L 317.50 450.00 L 319.50 457.00 L 322.50 462.00 L 322.00 464.50 Z M 357.00 464.50 L 356.00 463.50 L 355.00 464.50 L 347.00 464.50 L 345.50 463.00 L 345.50 447.00 L 347.00 445.50 L 348.50 447.00 L 348.50 461.00 L 357.00 461.50 L 358.50 463.00 L 357.00 464.50 Z M 422.00 464.50 L 419.50 463.00 L 419.50 461.00 L 418.00 459.50 L 410.00 459.50 L 409.50 462.00 L 407.00 464.50 L 405.50 464.00 L 406.50 460.00 L 408.50 457.00 L 408.50 455.00 L 414.00 445.50 L 416.50 447.00 L 417.50 451.00 L 420.50 456.00 L 420.50 458.00 L 423.50 463.00 L 422.00 464.50 Z M 454.00 464.50 L 446.50 464.00 L 447.00 445.50 L 454.00 445.50 L 455.00 446.50 L 457.00 446.50 L 460.50 449.00 L 462.50 453.00 L 462.50 457.00 L 460.50 461.00 L 459.00 462.50 L 455.00 463.50 L 454.00 464.50 Z M 492.00 464.50 L 489.50 463.00 L 489.50 461.00 L 486.50 456.00 L 485.50 451.00 L 483.50 448.00 L 484.00 445.50 L 485.00 445.50 L 487.50 448.00 L 488.50 453.00 L 490.50 456.00 L 490.50 458.00 L 492.00 459.50 L 496.50 448.00 L 498.00 446.50 L 500.50 447.00 L 496.50 455.00 L 494.50 462.00 L 492.00 464.50 Z M 526.00 464.50 L 523.50 463.00 L 523.50 447.00 L 525.00 445.50 L 526.50 446.00 L 526.00 464.50 Z M 559.00 464.50 L 555.00 464.50 L 550.50 462.00 L 552.00 459.50 L 555.00 461.50 L 560.00 461.50 L 561.50 459.00 L 561.50 458.00 L 559.00 456.50 L 554.00 455.50 L 550.50 452.00 L 551.50 448.00 L 555.00 445.50 L 559.00 445.50 L 563.50 448.00 L 562.00 449.50 L 560.00 449.50 L 559.00 448.50 L 555.00 448.50 L 553.50 450.00 L 555.00 452.50 L 562.00 454.50 L 564.50 458.00 L 563.50 462.00 L 562.00 463.50 L 560.00 463.50 L 559.00 464.50 Z M 598.00 464.50 L 593.00 464.50 L 591.00 463.50 L 586.50 458.00 L 586.50 452.00 L 587.50 450.00 L 593.00 445.50 L 597.00 445.50 L 598.00 446.50 L 600.00 446.50 L 604.50 452.00 L 604.50 459.00 L 602.00 462.50 L 598.00 464.50 Z M 642.00 464.50 L 639.00 463.50 L 635.00 457.50 L 630.50 458.00 L 630.00 464.50 L 627.50 463.00 L 627.50 447.00 L 629.00 445.50 L 630.00 446.50 L 632.00 445.50 L 636.00 445.50 L 641.50 448.00 L 642.50 450.00 L 642.50 453.00 L 640.00 456.50 L 638.50 457.00 L 638.50 458.00 L 642.50 463.00 L 642.00 464.50 Z M 205.00 464.50 L 204.00 463.50 L 202.00 463.50 L 201.00 464.50 L 199.00 463.50 L 196.00 463.50 L 195.00 464.50 L 193.50 463.00 L 194.00 446.50 L 196.50 447.00 L 196.50 461.00 L 206.00 461.50 L 206.50 463.00 L 205.00 464.50 Z M 673.00 464.50 L 670.50 464.00 L 670.50 456.00 L 665.50 450.00 L 665.50 449.00 L 663.50 447.00 L 664.00 446.50 L 667.00 446.50 L 672.00 453.50 L 677.00 446.50 L 679.50 447.00 L 677.50 451.00 L 673.50 456.00 L 673.00 464.50 Z M 239.50 461.00 L 242.50 458.00 L 242.50 452.00 L 239.00 448.50 L 234.00 448.50 L 230.50 452.00 L 230.50 458.00 L 234.00 461.50 L 239.50 461.00 Z M 278.50 453.00 L 279.50 452.00 L 279.50 450.00 L 278.00 448.50 L 271.50 449.00 L 272.00 453.50 L 278.50 453.00 Z M 455.50 461.00 L 458.50 459.00 L 459.50 457.00 L 459.50 454.00 L 455.00 448.50 L 450.00 448.50 L 448.50 450.00 L 449.50 451.00 L 448.50 452.00 L 449.50 453.00 L 449.50 461.00 L 455.50 461.00 Z M 598.50 461.00 L 601.50 458.00 L 601.50 452.00 L 598.00 448.50 L 594.00 448.50 L 590.50 451.00 L 589.50 453.00 L 589.50 457.00 L 593.00 461.50 L 598.50 461.00 Z M 638.50 454.00 L 639.50 453.00 L 639.50 451.00 L 637.00 448.50 L 630.50 449.00 L 631.00 454.50 L 638.50 454.00 Z M 316.50 456.00 L 314.00 450.50 L 312.50 452.00 L 312.50 454.00 L 310.50 456.00 L 316.50 456.00 Z M 417.50 456.00 L 415.50 453.00 L 415.50 451.00 L 414.00 450.50 L 413.50 453.00 L 411.50 456.00 L 417.50 456.00 Z M 278.50 461.00 L 280.50 460.00 L 280.50 458.00 L 279.00 456.50 L 271.50 457.00 L 272.00 461.50 L 278.50 461.00 Z" fill="#a89165"/>
    <path id="dark-wordmark" d="M 199.00 366.50 L 156.50 366.00 L 167.00 363.50 L 169.50 361.00 L 170.50 357.00 L 171.50 356.00 L 171.50 278.00 L 170.50 277.00 L 170.50 274.00 L 169.50 272.00 L 167.00 269.50 L 163.00 268.50 L 162.00 267.50 L 157.00 267.50 L 157.00 265.50 L 199.50 266.00 L 199.00 267.50 L 194.00 267.50 L 193.00 268.50 L 189.00 269.50 L 186.50 272.00 L 185.50 276.00 L 184.50 277.00 L 184.50 356.00 L 185.50 357.00 L 185.50 360.00 L 189.00 363.50 L 195.00 364.50 L 196.00 365.50 L 199.00 365.50 L 199.00 366.50 Z M 397.00 366.50 L 333.50 366.00 L 337.00 364.50 L 343.00 363.50 L 345.50 361.00 L 346.50 357.00 L 347.50 356.00 L 347.50 276.00 L 346.50 275.00 L 346.50 273.00 L 342.00 268.50 L 334.00 267.50 L 334.00 265.50 L 384.00 265.50 L 385.00 266.50 L 396.00 266.50 L 397.00 267.50 L 401.00 267.50 L 402.00 268.50 L 405.00 268.50 L 409.00 270.50 L 411.00 270.50 L 421.00 275.50 L 426.00 279.50 L 435.50 290.00 L 439.50 298.00 L 439.50 300.00 L 441.50 304.00 L 441.50 309.00 L 442.50 310.00 L 442.50 322.00 L 441.50 323.00 L 441.50 328.00 L 440.50 329.00 L 439.50 335.00 L 435.50 343.00 L 433.50 345.00 L 433.50 346.00 L 423.00 356.50 L 422.00 356.50 L 420.00 358.50 L 412.00 362.50 L 410.00 362.50 L 406.00 364.50 L 403.00 364.50 L 402.00 365.50 L 398.00 365.50 L 397.00 366.50 Z M 663.00 367.50 L 661.00 367.50 L 658.50 365.00 L 658.50 364.00 L 654.50 360.00 L 654.50 359.00 L 648.50 353.00 L 648.50 352.00 L 642.50 346.00 L 642.50 345.00 L 637.50 340.00 L 637.50 339.00 L 631.50 333.00 L 631.50 332.00 L 626.50 327.00 L 626.50 326.00 L 620.50 320.00 L 620.50 319.00 L 615.50 314.00 L 615.50 313.00 L 609.50 307.00 L 609.50 306.00 L 603.50 300.00 L 603.50 299.00 L 597.50 293.00 L 597.50 292.00 L 588.50 283.00 L 588.00 281.50 L 586.50 282.00 L 586.50 350.00 L 587.50 351.00 L 587.50 356.00 L 588.50 357.00 L 588.50 359.00 L 593.00 363.50 L 602.50 366.00 L 567.50 366.00 L 571.00 365.50 L 572.00 364.50 L 575.00 364.50 L 580.50 360.00 L 581.50 356.00 L 582.50 355.00 L 582.50 348.00 L 583.50 347.00 L 583.50 278.00 L 576.00 269.50 L 572.00 268.50 L 571.00 267.50 L 568.00 267.50 L 568.00 265.50 L 592.00 265.50 L 660.00 345.50 L 660.50 283.00 L 659.50 282.00 L 659.50 278.00 L 658.50 277.00 L 657.50 273.00 L 654.00 269.50 L 650.00 268.50 L 649.00 267.50 L 644.00 267.50 L 643.50 266.00 L 679.50 266.00 L 679.00 267.50 L 674.00 267.50 L 670.00 269.50 L 666.50 273.00 L 665.50 277.00 L 664.50 278.00 L 664.50 285.00 L 663.50 286.00 L 663.00 367.50 Z M 391.50 364.00 L 401.00 362.50 L 407.00 359.50 L 412.00 355.50 L 421.50 345.00 L 424.50 339.00 L 425.50 333.00 L 426.50 332.00 L 426.50 329.00 L 427.50 328.00 L 427.50 308.00 L 426.50 307.00 L 426.50 303.00 L 425.50 302.00 L 424.50 297.00 L 417.50 285.00 L 410.00 277.50 L 409.00 277.50 L 404.00 273.50 L 400.00 272.50 L 397.00 270.50 L 389.00 269.50 L 388.00 268.50 L 363.00 268.50 L 361.50 270.00 L 361.50 275.00 L 360.50 276.00 L 360.50 353.00 L 361.50 354.00 L 361.50 357.00 L 362.50 358.00 L 362.50 360.00 L 368.00 363.50 L 372.00 363.50 L 373.00 364.50 L 391.50 364.00 Z" fill="#202124"/>
  </g>
</svg>
